<?xml version="1.0" standalone="no"?>
<!DOCTYPE svg PUBLIC "-//W3C//DTD SVG 20010904//EN"
 "http://www.w3.org/TR/2001/REC-SVG-20010904/DTD/svg10.dtd">
<svg version="1.0" xmlns="http://www.w3.org/2000/svg"
 width="24.000000pt" height="24.000000pt" viewBox="0 0 24.000000 24.000000"
 preserveAspectRatio="xMidYMid meet">

<g transform="translate(0.000000,24.000000) scale(0.100000,-0.100000)"
fill="#000000" stroke="none">
<path d="M98 196 c-13 -26 -25 -35 -53 -40 l-36 -7 26 -31 c22 -26 25 -37 20
-70 -8 -43 -5 -45 36 -21 27 16 31 16 58 0 41 -24 44 -22 37 19 -6 29 -3 42
19 69 l25 34 -36 7 c-27 5 -39 14 -52 40 -8 19 -19 34 -22 34 -3 0 -14 -15
-22 -34z m40 -31 c8 -18 19 -25 39 -25 l26 0 -22 -24 c-16 -17 -20 -30 -15
-50 7 -29 3 -32 -26 -14 -16 10 -24 10 -40 0 -29 -18 -33 -15 -26 14 5 20 1
33 -15 50 l-22 24 26 0 c20 0 31 7 39 25 6 14 14 25 18 25 4 0 12 -11 18 -25z"/>
</g>
</svg>
